GREETZ: UnDeaD - BadGirl2k9 - virusofsaten - foxyb - WICCYWOLF - lizzymwah1

VISIT http://www.seedboxworld.biz/ for all ur seedbox needs!

RELEASE NAME: Iron.Man.2.2010.DVDRip.XviD-SDTeam
RELEASED BY: UnDeaD & BadGirl2k9
SIZE: 489 MB

LANGUAGE: English
IMDb: http://www.imdb.com/title/tt1228705/

PLOT: With the world now aware of his dual life 
as the armored superhero Iron Man, billionaire 
inventor Tony Stark faces pressure from the government, 
the press, and the public to share his technology with 
the military. Unwilling to let go of his invention, Stark, 
along with Pepper Potts, and James "Rhodey" Rhodes at his 
side, must forge new alliances - and confront 
powerful enemies. 

SCREENS: 
http://i658.photobucket.com/albums/uu309/BadGirl2k9/screens/uKF5r.png 
http://i658.photobucket.com/albums/uu309/BadGirl2k9/screens/6PPcB.png 
http://i658.photobucket.com/albums/uu309/BadGirl2k9/screens/a2ouW.png

General
Format                           : AVI
Format/Info                      : Audio Video Interleave
File size                        : 489 MiB
Duration                         : 1h 59mn
Overall bit rate                 : 571 Kbps
Writing application              : MEncoder SVN-r22963
Writing library                  : MPlayer

Video
ID                               : 0
Format                           : MPEG-4 Visual
Format profile                   : Simple@L3
Format settings, BVOP            : No
Format settings, QPel            : No
Format settings, GMC             : No warppoints
Format settings, Matrix          : Default (H.263)
Codec ID                         : XVID
Codec ID/Hint                    : XviD
Duration                         : 1h 59mn
Bit rate                         : 496 Kbps
Width                            : 720 pixels
Height                           : 304 pixels
Display aspect ratio             : 2.35:1
Frame rate                       : 20.000 fps
Resolution                       : 8 bits
Colorimetry                      : 4:2:0
Scan type                        : Progressive
Bits/(Pixel*Frame)               : 0.113
Stream size                      : 424 MiB (87%)
Writing library                  : XviD 1.1.2 (UTC 2006-11-01)

Audio
ID                               : 1
Format                           : MPEG Audio
Format version                   : Version 1
Format profile                   : Layer 3
Codec ID                         : 55
Codec ID/Hint                    : MP3
Duration                         : 1h 59mn
Bit rate mode                    : Constant
Bit rate                         : 64.0 Kbps
Channel(s)                       : 2 channels
Sampling rate                    : 44.1 KHz
Stream size                      : 54.8 MiB (11%)
Alignment                        : Aligned on interleaves
Interleave, duration             : 26 ms (0.52 video frame)
Interleave, preload duration     : 522 ms
Writing library                  : LAMEUUULAME3.97


GROUP NOTE: Big thanks to seedboxworld.biz for the seedbox!
